HIERARCHY
ROOT hip
{
  OFFSET 0.0 0.0 0.0
  CHANNELS 6 Xposition Yposition Zposition Zrotation Yrotation Xrotation
  JOINT torso
  {
    OFFSET 0.0 0.0 0.0
    CHANNELS 3 Zrotation Xrotation Yrotation
    JOINT neck
    {
      OFFSET -8.059630999999968 325.56260699999996 64.6221310000002
      CHANNELS 3 Zrotation Xrotation Yrotation
      JOINT head
      {
        OFFSET 34.685424000000125 375.1179809999999 232.79357900000002
        CHANNELS 3 Zrotation Xrotation Yrotation
        End Site
        {
          OFFSET 0.0 0.0 0.0
        }
      }
    }
    JOINT left_collar
    {
      OFFSET -8.059630999999968 325.56260699999996 64.6221310000002
      CHANNELS 3 Zrotation Xrotation Yrotation
      JOINT left_upper_arm
      {
        OFFSET -124.124665 -15.370300999999927 25.582641999999964
        CHANNELS 3 Zrotation Xrotation Yrotation
        JOINT left_forearm
        {
          OFFSET -268.19913399999996 105.06054699999993 114.74548300000004
          CHANNELS 3 Zrotation Xrotation Yrotation
          JOINT left_hand
          {
            OFFSET -235.82003099999991 -10.198180999999977 -38.67455999999993
            CHANNELS 3 Zrotation Xrotation Yrotation
            End Site
            {
              OFFSET 0.0 0.0 0.0
            }
          }
        }
      }
    }
    JOINT right_collar
    {
      OFFSET -8.059630999999968 325.56260699999996 64.6221310000002
      CHANNELS 3 Zrotation Xrotation Yrotation
      JOINT right_upper_arm
      {
        OFFSET 162.73931899999997 -2.8598030000000563 26.244994999999903
        CHANNELS 3 Zrotation Xrotation Yrotation
        JOINT right_forearm
        {
          OFFSET 284.6506340000001 103.07031299999994 145.84521499999994
          CHANNELS 3 Zrotation Xrotation Yrotation
          JOINT right_hand
          {
            OFFSET 226.332337 -12.198241999999937 -49.27258299999994
            CHANNELS 3 Zrotation Xrotation Yrotation
            End Site
            {
              OFFSET 0.0 0.0 0.0
            }
          }
        }
      }
    }
  }
}
MOTION
Frames: 9
Frame Time: 0.01
447.9031502161923 190.28263701842044 110.85655145788631 -7.642207303307072 -3.8648773314803715 14.470484197260186 -0.32407028203498456 -1.0707247462237213 0.04076812720416987 3.998066722676368 3.585709785931866 -2.7323733162948947 0.0 0.0 0.0 2.9435577243977034 -0.7395060822047925 9.050267635867282 27.981421568033486 2.7238605048256335 -62.60219299683216 -61.94542499014435 -12.172468703793745 -42.13726950090708 0.0 0.0 0.0 -0.2585711346263523 -0.1117111135162641 -7.786155170298746 -47.06954223629331 25.73252709376369 24.45662205019696 -20.92964857819528 -1.8690699594552662 11.34868923671611 0.0 0.0 0.0
447.8822769653204 190.3119967951366 110.88686463238146 -7.6426120688216 -3.8423612691381046 14.488421708656114 -0.3222696327108272 -1.0923607589507283 0.03991921876390456 4.006838437866482 3.586477346447752 -2.73766762157553 0.0 0.0 0.0 2.9251473765192917 -0.7383529638420868 9.026821232344352 27.90328204478641 2.5979836590347385 -62.71283780142275 -61.979028668976 -12.01874450218882 -41.848057188334735 0.0 0.0 0.0 -0.2696101863939319 -0.11138881487637653 -7.821553145838197 -47.054456691825834 25.727199913683332 24.485400849328705 -20.927051538904646 -1.8694997078998232 11.34560128693396 0.0 0.0 0.0
447.85942353568566 190.34159707049844 110.91466470905179 -7.642292110184841 -3.817744028100381 14.507466682538569 -0.321049847969645 -1.1148625609353033 0.039171362246304006 4.016014654024406 3.5854124602332917 -2.7430686723271003 0.0 0.0 0.0 2.9066704847355886 -0.7368670729792987 9.001001061042539 27.828214872534595 2.477773832820861 -62.81367794283719 -62.00286652985244 -11.872523363475775 -41.57689401107366 0.0 0.0 0.0 -0.28125925845079575 -0.11103172298039443 -7.8576717355593555 -47.03868586954851 25.720941323973193 24.511726983541024 -20.92684571287318 -1.869934023669425 11.343700046470696 0.0 0.0 0.0
447.8349892321304 190.3700467737489 110.93864812388016 -7.640919009126992 -3.7914923504487836 14.527008658417058 -0.32048621262859056 -1.1376776928929777 0.03855266703740827 4.025044829178007 3.5822023621546206 -2.7482250469041345 0.0 0.0 0.0 2.888682812187195 -0.7351578916293994 8.974019958243836 27.759772450760885 2.3689643822426674 -62.900297026444576 -62.014890377608374 -11.740377009220323 -41.3362697594546 0.0 0.0 0.0 -0.2931429384284691 -0.11064975521147753 -7.893244694650481 -47.02290023316097 25.71395572896959 24.534135551649516 -20.929378720170345 -1.8703860311267506 11.343107072984923 0.0 0.0 0.0
447.80939037463946 190.39594321486882 110.95762500230839 -7.638166352887543 -3.7640683574375786 14.546467033231696 -0.32064689379832856 -1.1602826537421118 0.03808920362749979 4.033396433402165 3.576557599866549 -2.752797844649499 0.0 0.0 0.0 2.8716968778750953 -0.7333392053805041 8.947091948070351 27.701372108466458 2.2770952829679323 -62.968619348764435 -62.013468675159515 -11.628614175359823 -41.138023256680675 0.0 0.0 0.0 -0.30484222074806067 -0.11025637460709199 -7.92703441247088 -47.00781894951965 25.706489493390965 24.551195858716543 -20.934938985384512 -1.8708703694939461 11.343907078744873 0.0 0.0 0.0
447.78304664385615 190.41791789103735 110.97055863982631 -7.633721169067825 -3.735915277486693 14.565310416348764 -0.3215909116840915 -1.1821990608856976 0.03780418879100547 4.040574058204687 3.5682197469829737 -2.756472586781517 0.0 0.0 0.0 2.856164422118681 -0.7315247315054412 8.921386608468676 27.65619807026006 2.2073308042681776 -63.0150055352496 -61.99733806830646 -11.54306164639447 -40.993013024553605 0.0 0.0 0.0 -0.3159123315919944 -0.10986783559121825 -7.957875494252693 -46.99417487706667 25.698817299819652 24.561573058552277 -20.943744400932328 -1.8714026447740624 11.34614427114093 0.0 0.0 0.0
447.7563672611671 190.43468204539496 110.9765998750247 -7.627295405179957 -3.7074455225048535 14.583072709677026 -0.32336634374626355 -1.2030067319010422 0.03771728398846055 4.0461367789789895 3.5569683436897117 -2.7589700087870397 0.0 0.0 0.0 2.842461962246767 -0.7298238501638492 8.897985736027037 27.627112015113497 2.1642867236200245 -63.03632744795565 -61.96551451715874 -11.488861424641222 -40.91082996126873 0.0 0.0 0.0 -0.32590406235316915 -0.10950222352654197 -7.984716334688781 -46.982673941901375 25.69122488869508 24.564093304257025 -20.955932933545473 -1.8719988187577725 11.349820042374066 0.0 0.0 0.0
447.72973753667276 190.44507037349985 110.97511508235638 -7.61863716906112 -3.6790316534182916 14.599365260990819 -0.3260086451894231 -1.2223532072280523 0.03784399736203266 4.049713014146235 3.5426270102167834 -2.76005530037739 0.0 0.0 0.0 2.8308801320869312 -0.7283376021250121 8.87784437433268 27.616574044118504 2.1518738188828292 -63.03002434390393 -61.91718203532945 -11.470291421551002 -40.89955428488763 0.0 0.0 0.0 -0.33438786698947587 -0.10917830909659608 -8.006657082082235 -46.97395049148562 25.683988930648873 24.557809954140602 -20.97155545352796 -1.8726745509759213 11.354892111106073 0.0 0.0 0.0
447.7035062953811 190.44808132600468 110.96570679380326 -7.607541431261523 -3.6510005185730283 14.613884718370839 -0.32953897747981564 -1.2399594983304676 0.038195175132531616 4.05101227781378 3.5250686948903716 -2.759545441931487 0.0 0.0 0.0 2.8216172981369576 -0.7271550891956564 8.861757989627087 27.626575274263047 2.173163447624516 -62.99414373042029 -61.85157991528265 -11.490614740274479 -40.96555613079163 0.0 0.0 0.0 -0.3409796666807338 -0.10891424360653189 -8.02298248511199 -46.96852078562632 25.677355138931265 24.542067764421475 -20.99057102744557 -1.8734445098236188 11.361275182053017 0.0 0.0 0.0
